<svg width="109" height="130" viewBox="0 0 109 130" fill="none" xmlns="http://www.w3.org/2000/svg">
<path d="M8.01074 102.488C8.91588 102.307 10.2968 102.197 11.1094 102.308C11.8149 102.404 12.8757 102.722 13.6201 103.045L13.918 103.183L13.9238 103.186C14.2181 103.346 14.4478 103.464 14.6309 103.545C14.8161 103.626 14.9421 103.663 15.0303 103.672C15.1107 103.68 15.1501 103.663 15.1797 103.64C15.218 103.609 15.259 103.55 15.3105 103.438L15.3125 103.434C15.3825 103.294 15.489 103.179 15.6758 103.096C15.8527 103.017 16.1 102.967 16.4521 102.938C16.9818 102.893 17.7851 102.892 19.0215 102.933L20.4082 102.986L20.5615 102.993L20.5635 103.146L20.7422 122.669L20.7432 122.833H18.0723C17.1234 122.833 16.4731 122.798 16.0391 122.709C15.6097 122.621 15.3364 122.469 15.2344 122.188L15.2314 122.182L15.3857 122.134L15.2314 122.181C15.2016 122.084 15.1685 122.048 15.1357 122.03C15.0968 122.009 15.0194 121.994 14.8574 122.021C14.5311 122.075 13.9859 122.28 13.0488 122.677L13.0479 122.678C12.1325 123.055 11.4743 123.284 10.8564 123.395C10.2352 123.506 9.6626 123.495 8.91895 123.404H8.91602C7.85231 123.258 6.25609 122.676 5.09473 121.986V121.985C3.7854 121.221 2.69176 120.202 1.88965 118.999L1.88867 118.997C1.24098 117.99 0.548931 116.612 0.363281 115.906V115.905C0.142928 115.201 0 113.9 0 112.999C1.57591e-05 112.088 0.2178 110.532 0.508789 109.55C0.801657 108.526 1.56194 107.043 2.14258 106.208L2.14551 106.204C2.76691 105.363 3.9648 104.275 4.80664 103.763L4.80859 103.761C5.67983 103.253 7.09379 102.672 8.01074 102.488ZM50.832 98.6709C50.832 100.156 50.8496 101.499 50.8809 102.468C50.8965 102.952 50.916 103.342 50.9375 103.609C50.945 103.703 50.9552 103.779 50.9629 103.839C50.9688 103.837 50.9752 103.835 50.9814 103.832C51.0769 103.793 51.2049 103.735 51.3584 103.664C51.6652 103.522 52.0668 103.326 52.4961 103.111C53.5973 102.525 54.6269 102.307 56.043 102.307H56.0479C57.3224 102.343 58.7755 102.67 60.0117 103.215L60.252 103.322C61.2903 103.811 62.3133 104.578 63.1875 105.481L63.5801 105.908L63.5811 105.909C64.0157 106.416 64.4595 107.013 64.8213 107.569C65.1804 108.122 65.4685 108.648 65.583 109.011C65.6973 109.373 65.7781 110.065 65.8184 110.874C65.8588 111.689 65.8585 112.642 65.8047 113.542L65.8057 113.543C65.7519 114.868 65.6801 115.751 65.5244 116.451C65.3673 117.158 65.125 117.677 64.7412 118.28C64.2287 119.085 63.0709 120.351 62.2041 121.109L62.2021 121.111C61.2177 121.95 59.8005 122.713 58.5977 123.077L58.1406 123.191C57.0723 123.436 55.9465 123.534 55.2266 123.403V123.402C54.4556 123.291 53.1923 122.894 52.4336 122.569L52.4307 122.568C51.8763 122.318 51.5111 122.193 51.248 122.165C51.1202 122.151 51.0215 122.161 50.9395 122.187C50.8576 122.212 50.7829 122.258 50.707 122.326L50.7041 122.328C50.613 122.406 50.4622 122.47 50.2607 122.527C50.0532 122.586 49.7696 122.643 49.3945 122.697C48.6436 122.806 47.5091 122.905 45.8418 122.977L45.6738 122.983L45.6729 122.815L45.5654 108.058V108.057L45.4932 93.2988L45.4922 93.1348H50.832V98.6709ZM93.8174 98.6709C93.8174 100.156 93.8349 101.499 93.8662 102.468C93.8818 102.952 93.9014 103.342 93.9229 103.609C93.9302 103.7 93.9398 103.775 93.9473 103.834C94.0329 103.796 94.1482 103.739 94.2832 103.668C94.553 103.526 94.8998 103.331 95.2559 103.117C96.2936 102.487 97.2225 102.307 98.8496 102.307H98.8535C100.189 102.338 101.332 102.565 102.521 103.035L103.035 103.252L103.037 103.253C104.122 103.759 105.575 104.701 106.239 105.401C106.896 106.095 107.765 107.363 108.202 108.272H108.201C108.825 109.557 109.006 110.588 109.006 112.82C109.006 113.987 108.961 114.797 108.823 115.498C108.685 116.201 108.454 116.788 108.093 117.511L108.094 117.512C107.617 118.502 106.42 120.024 105.403 120.896C104.173 121.981 102.933 122.711 101.579 123.077C100.276 123.439 99.0366 123.551 97.9346 123.368V123.369C97.9333 123.369 97.932 123.368 97.9307 123.368H97.9277V123.367C97.4675 123.311 96.9219 123.175 96.416 123.004C95.9123 122.833 95.4356 122.623 95.1152 122.417C94.8655 122.274 94.6687 122.167 94.5117 122.094C94.3521 122.019 94.2461 121.985 94.1748 121.977C94.1122 121.969 94.0917 121.984 94.0781 121.997C94.0539 122.02 94.0231 122.072 93.9893 122.182L93.9873 122.189C93.9351 122.333 93.8342 122.447 93.6504 122.531C93.4769 122.611 93.2233 122.668 92.8545 122.711C92.1136 122.797 90.8415 122.833 88.6406 122.833H88.4785V93.1348H93.8174V98.6709ZM28.6221 122.833H23.4648L23.4629 122.674L23.3193 112.823V112.822L23.2119 102.972L23.21 102.808H28.6221V122.833ZM38.7822 103.002C39.9887 102.454 41.3051 102.126 43.3379 102.271L43.4824 102.281L43.4883 102.427L43.667 107.263L43.6738 107.431H41.0693C40.4148 107.431 39.7513 107.484 39.2139 107.567C38.9453 107.609 38.7104 107.658 38.5254 107.711C38.3347 107.766 38.2146 107.819 38.1602 107.861C38.0229 107.968 37.8376 108.199 37.6572 108.498C37.4792 108.793 37.3148 109.141 37.2119 109.467C37.172 109.624 37.1292 109.941 37.0879 110.479C37.0462 111.022 37.0072 111.782 36.9736 112.812C36.9066 114.874 36.8613 118.016 36.8613 122.672V122.833H31.5225V102.812L31.6807 102.808L33.002 102.772L33.6045 102.751C34.2304 102.736 34.891 102.736 35.2666 102.736H35.2783L35.4844 102.762C35.691 102.797 35.8989 102.862 36.083 102.948C36.3189 103.059 36.5376 103.217 36.6533 103.415L36.7568 103.543C36.789 103.575 36.8201 103.598 36.8516 103.614C36.9112 103.644 36.9948 103.659 37.1367 103.638C37.436 103.593 37.9146 103.399 38.7812 103.002H38.7822ZM78.4834 102.286L78.8047 102.307L78.8115 102.308C79.5078 102.403 80.4535 102.608 81.0957 102.805L81.3516 102.889L81.3545 102.89C81.9411 103.11 82.9868 103.687 83.6084 104.16L83.8672 104.351C84.1314 104.562 84.4063 104.828 84.6553 105.104C84.904 105.38 85.1324 105.673 85.3027 105.937L85.4521 106.189L85.4531 106.19C85.7222 106.709 85.874 107.371 85.9902 109.61C86.1068 111.857 86.1875 115.721 86.2949 122.669L86.2979 122.833H80.959L80.9561 122.674L80.8486 116.083V116.082C80.8128 113.034 80.7769 111.368 80.666 110.348C80.6108 109.84 80.5377 109.5 80.4404 109.234C80.344 108.971 80.2209 108.772 80.0557 108.546C79.8734 108.297 79.5676 108.023 79.2188 107.787C78.8702 107.552 78.4929 107.365 78.1758 107.281L78.1719 107.28C77.6854 107.141 77.3268 107.102 76.916 107.177C76.4967 107.253 76.0123 107.45 75.2783 107.808C74.5623 108.166 74.1279 108.424 73.8398 108.712C73.5593 108.992 73.4084 109.311 73.2871 109.813L73.2861 109.816C73.2462 109.968 73.209 110.28 73.1826 110.816C73.1565 111.348 73.1423 112.089 73.1445 113.093C73.149 115.1 73.2203 118.152 73.3994 122.665L73.4062 122.833H67.7021V102.808H70.1924C71.0699 102.808 71.6767 102.843 72.085 102.932C72.441 103.009 72.684 103.137 72.8066 103.354L72.8525 103.451L72.8555 103.459H72.8545C72.8896 103.573 72.9186 103.635 72.9443 103.668C72.9611 103.689 72.972 103.694 72.9961 103.694C73.0358 103.694 73.1053 103.677 73.2266 103.621C73.345 103.567 73.4959 103.483 73.6924 103.367L73.6943 103.366C74.2031 103.075 75.198 102.684 75.959 102.498L75.958 102.489C76.633 102.329 77.6912 102.254 78.4834 102.286ZM55.1416 107.105C54.6319 107.124 54.0686 107.188 53.5596 107.283C53.0539 107.378 52.5882 107.507 52.2812 107.66L52.2852 107.678C51.993 107.829 51.6972 108.044 51.4512 108.272C51.2025 108.503 50.9901 108.758 50.8857 108.981L50.8809 108.991C50.816 109.116 50.7651 109.314 50.7227 109.547C50.6779 109.793 50.639 110.098 50.6074 110.44C50.5442 111.127 50.5078 111.974 50.5078 112.82C50.5078 113.666 50.5442 114.513 50.6074 115.199C50.639 115.542 50.6779 115.847 50.7227 116.093C50.7651 116.325 50.8162 116.523 50.8809 116.647V116.648C50.9877 116.883 51.2477 117.145 51.5469 117.376C51.8522 117.612 52.2227 117.835 52.5771 117.984C53.2759 118.279 54.4791 118.534 55.2188 118.534C55.9966 118.534 57.2049 118.242 57.9092 117.871L57.9082 117.87C58.2674 117.699 58.6826 117.395 59.0625 117.051C59.4453 116.704 59.8041 116.309 60.0459 115.956L60.0479 115.952C60.6414 115.025 60.8613 114.133 60.8613 112.82C60.8613 111.654 60.6072 110.547 60.1211 109.762L60.1191 109.759L59.9463 109.513C59.497 108.918 58.7522 108.202 58.1689 107.846H58.168C57.3839 107.361 56.3499 107.105 55.1475 107.105H55.1416ZM10.9082 107.105C9.95822 107.106 8.78311 107.395 8.13965 107.809L8.01465 107.888C7.71603 108.089 7.36947 108.404 7.03711 108.76C6.65538 109.169 6.28191 109.643 6.00684 110.083C5.73113 110.524 5.48443 111.055 5.30664 111.547C5.13054 112.035 5.01465 112.505 5.01465 112.82C5.01473 113.129 5.10067 113.584 5.23145 114.062C5.36319 114.544 5.54491 115.063 5.74609 115.502L5.74805 115.507C6.29924 116.609 6.93309 117.28 8.0752 117.834V117.835C9.21636 118.424 10.1066 118.571 11.5254 118.498H11.5293C12.2687 118.444 12.8081 118.353 13.2656 118.169C13.7267 117.984 14.0937 117.708 14.4971 117.305C14.9354 116.866 15.2061 116.513 15.374 115.995C15.5383 115.488 15.6017 114.832 15.6553 113.796C15.6914 113.127 15.6908 112.379 15.6592 111.711C15.6278 111.047 15.5649 110.45 15.4707 110.092C15.2442 109.224 14.6789 108.476 13.8262 107.92C12.9725 107.363 12.0095 107.105 10.9082 107.105ZM98.7461 107.178C97.4798 107.142 96.2358 107.321 95.4541 107.656L95.457 107.672C95.1297 107.821 94.7894 108.037 94.5068 108.266C94.2246 108.494 93.9794 108.752 93.8711 108.981L93.8232 109.087C93.7781 109.205 93.7408 109.359 93.708 109.533C93.6631 109.771 93.6244 110.064 93.5928 110.392C93.5296 111.047 93.4932 111.849 93.4932 112.641C93.4932 113.433 93.5293 114.244 93.5879 114.916C93.6172 115.252 93.652 115.555 93.6914 115.805C93.7302 116.051 93.7749 116.255 93.8262 116.389V116.388C93.8717 116.521 93.9613 116.658 94.0713 116.79C94.1844 116.926 94.3272 117.065 94.4863 117.201C94.8047 117.473 95.1996 117.74 95.5859 117.942L95.5908 117.945C96.6624 118.463 97.5187 118.572 98.8672 118.426L99.249 118.371C99.6383 118.304 100.045 118.201 100.418 118.078C100.911 117.915 101.362 117.712 101.636 117.497C102.147 117.096 102.837 116.405 103.204 115.928L103.206 115.926C103.665 115.314 103.919 114.343 103.919 113.179C103.919 112.667 103.864 112.084 103.769 111.556C103.686 111.097 103.57 110.666 103.425 110.357L103.36 110.233C103.062 109.641 102.374 108.737 101.826 108.226H101.827C101.438 107.855 101.069 107.607 100.589 107.445C100.233 107.326 99.8212 107.255 99.3037 107.212L98.749 107.178H98.7461Z" fill="#EFB029"/>
<path d="M23.6967 94.6942C24.2698 94.1569 24.9504 93.6554 25.237 93.5479C25.5235 93.4405 25.9892 93.333 26.2042 93.333C26.4549 93.2972 27.0997 93.5121 27.6012 93.7629C28.1385 93.9778 28.7833 94.6226 29.034 95.1957C29.3206 95.733 29.5355 96.5569 29.5355 97.0584C29.5355 97.5599 29.1057 98.4555 28.5684 99.0644C27.7445 99.9599 27.2788 100.175 26.1325 100.175C24.9862 100.175 24.5206 99.9599 23.7325 99.0644C23.0877 98.348 22.7295 97.5599 22.7295 96.8077C22.7295 95.9838 23.0161 95.339 23.6967 94.6942Z" fill="#EFB029" stroke="#EFB029" stroke-width="0.323787"/>
<path d="M54.0728 0C55.4447 3.12619e-05 57.5024 0.252138 58.5962 0.580078C59.6782 0.904686 61.1964 1.55364 61.9312 2.03027L62.2407 2.23535C62.8985 2.69583 63.77 3.43814 64.4614 4.09668L64.7905 4.41797L64.7954 4.42285L65.1206 4.79883C65.9369 5.783 67.1136 7.47199 67.9312 8.85547L67.9331 8.8584C68.831 10.4387 71.6979 15.9229 74.2769 21.0449C76.8566 26.1686 80.6182 33.9075 82.6606 38.2432C84.7007 42.5738 87.2445 47.8764 88.2485 50.0635L89.0845 51.8594C89.9579 53.7708 90.8925 55.9147 91.4048 57.2354C92.1238 58.9969 92.8802 61.5148 93.0981 62.8203L93.1841 63.3574C93.3657 64.656 93.4059 66.2338 93.2788 67.3457V67.3467C93.1342 68.5397 92.701 70.4144 92.3022 71.502L92.3013 71.5068L92.1509 71.4463L92.3003 71.5068C91.8678 72.5879 91.0396 74.2792 90.3882 75.293C89.7705 76.2739 88.5078 77.7534 87.6411 78.584L87.6392 78.5869C86.7736 79.3803 85.3323 80.46 84.4233 80.9697L84.4243 80.9707C83.5124 81.5177 81.6357 82.2747 80.2671 82.6709L80.2661 82.6699C78.7114 83.1396 76.7621 83.4297 75.2065 83.4297C73.8337 83.4296 71.7054 83.1773 70.5073 82.8506C69.3138 82.525 67.3703 81.7689 66.1812 81.1924L66.1772 81.1904C64.9898 80.5786 63.3011 79.5718 62.3999 78.959C61.4996 78.3467 59.3318 76.5704 54.436 72.0654L52.9341 73.6016L52.9331 73.6025C52.0323 74.5033 50.1648 76.1552 48.8013 77.2676C47.4308 78.3855 44.9855 79.9684 43.3989 80.7617L43.3979 80.7607C41.8089 81.5908 39.2188 82.5267 37.6304 82.8877L37.6284 82.8887C35.8632 83.2669 34.3956 83.4256 32.8677 83.3623L32.2085 83.3213C30.8355 83.2128 28.7057 82.7805 27.5054 82.3076C26.3127 81.8377 24.3666 80.8288 23.1733 79.9971C21.9789 79.1644 20.248 77.5412 19.3413 76.3447V76.3457C18.437 75.1879 17.3189 73.2403 16.8472 72.043L16.8462 72.041C16.2655 70.5164 15.9405 68.8509 15.8325 66.4395L15.7915 65.4727C15.7241 63.3714 15.874 62.2805 16.4126 60.4746C16.8103 59.1014 18.0317 56.0131 19.1069 53.6475C20.1821 51.2822 22.5464 46.1948 24.3735 42.3613C26.201 38.5273 30.4287 29.8932 33.7603 23.1943L36.2515 18.2695C38.6661 13.5242 40.7297 9.55235 41.3228 8.50098C42.1181 7.09111 43.6307 5.11002 44.605 4.06348L44.6069 4.06152C45.947 2.68522 47.1478 1.84783 48.9956 1.08691C50.9488 0.255139 52.1164 0.0362032 54.0698 0H54.0728ZM54.6099 5.37305C53.2594 5.37311 52.0178 5.66543 50.7798 6.24805L50.7788 6.24902C50.2886 6.48504 49.7452 6.79343 49.2739 7.10156C48.8654 7.3687 48.4991 7.64344 48.271 7.87695L48.1821 7.97363C47.7426 8.45139 46.9892 9.49265 46.521 10.2842C46.2652 10.6863 45.3923 12.3248 44.1948 14.626C42.9946 16.9325 41.4625 19.915 39.8862 23.0137C36.6976 29.2118 32.1838 38.311 29.8188 43.2559C27.454 48.1647 24.7304 54.1502 23.7261 56.5176C22.7238 58.8802 21.6104 61.8606 21.2837 63.165C21.0147 64.1692 20.8667 64.8471 20.8345 65.5059C20.8022 66.166 20.8862 66.7993 21.0659 67.7158V67.7188C21.3174 68.9042 21.821 70.5254 22.2231 71.333V71.334C22.5899 72.1408 23.5318 73.5156 24.2905 74.3828H24.2915C25.0957 75.2967 26.6181 76.4196 27.8511 77.0361L27.854 77.0371C29.158 77.6529 30.8947 78.1601 32.2036 78.3057H32.2085C33.6605 78.4267 35.1471 78.2933 36.6675 77.9072H36.6694C37.8972 77.5822 39.8417 76.8616 40.9985 76.2832L40.9976 76.2822C42.1236 75.737 44.2832 74.298 45.7563 73.1123C47.2271 71.9285 49.0288 70.2724 49.7202 69.4355L50.9731 67.9316L51.0542 67.834L50.979 67.7324C49.0465 65.1199 47.6864 63.1513 46.6841 61.6836C45.6858 60.2218 44.2928 57.7921 43.5796 56.3301C42.9565 55.0526 42.1676 53.0341 41.6694 51.5693L41.4751 50.9795C40.8361 48.9205 40.6231 47.5048 40.6587 44.7617V44.7598C40.6587 41.9368 40.8017 40.7787 41.3989 39.2676C41.8558 38.1433 42.9542 36.4761 44.0552 35.2686L44.0562 35.2676C45.3329 33.849 46.6771 32.8232 48.2319 32.0811L48.2349 32.0801C49.3079 31.5436 49.935 31.266 50.7476 31.1182C51.5676 30.9691 52.5823 30.9512 54.4312 30.9512C56.2613 30.9512 57.2765 30.9699 58.1021 31.1104C58.9209 31.2497 59.5586 31.5101 60.6313 32.0107V32.0098C61.9053 32.6115 63.6453 33.8198 64.5278 34.667C65.3744 35.5505 66.5782 37.2859 67.1792 38.5576V38.5586C67.6802 39.65 67.9411 40.2776 68.0806 41.1318C68.1861 41.7783 68.2221 42.5565 68.2339 43.7607L68.2397 45.1172C68.2084 48.2134 68.0954 49.4623 67.6177 51.0049L67.3882 51.6934C66.9619 52.9721 65.927 55.2925 65.1401 56.8662C64.3569 58.4327 62.4276 61.578 60.854 63.8311L60.853 63.832L58.0229 67.9512L57.9448 68.0645L58.0444 68.1602C62.5192 72.4559 64.8221 74.3649 66.0552 75.1631V75.1641C67.318 75.9939 69.2265 76.9655 70.311 77.3994L70.3149 77.4004C71.7691 77.9457 73.1855 78.1981 75.3843 78.1982V78.1992C76.6569 78.2171 77.5118 78.1906 78.2573 78.0625C79.0062 77.9338 79.6384 77.704 80.4683 77.3252L80.4702 77.3242C81.5586 76.8162 83.182 75.7342 84.0903 74.8994C85.0042 74.0952 86.1981 72.4651 86.7788 71.3037L86.7798 71.3027C87.5419 69.7423 87.8685 68.468 88.0132 66.623H88.0142V66.6191C88.0682 65.5754 88.0593 64.8104 87.936 64.0068C87.813 63.2048 87.5759 62.3697 87.1812 61.1855C86.6735 59.5927 84.1618 53.9261 81.6216 48.6309H81.6226C79.1146 43.3283 74.5288 33.8698 71.4478 27.6719C68.4035 21.4759 64.9983 14.7736 63.8853 12.7988C63.3284 11.8109 62.7 10.7779 62.1294 9.90625C61.5612 9.03823 61.0431 8.31892 60.7095 7.9668L60.7065 7.96387C60.134 7.39134 59.1731 6.65125 58.3989 6.22852L58.0806 6.06836C57.2297 5.66225 55.7731 5.37305 54.6099 5.37305ZM54.2515 35.8213C53.0708 35.8214 51.9184 36.0452 50.7954 36.4912L50.3159 36.6953C48.93 37.3155 48.046 38.0508 47.2759 39.1875L47.2749 39.1885C46.6895 40.0667 46.0377 41.6636 45.8188 42.7578C45.6018 43.8435 45.5278 45.4694 45.6733 46.3896V46.3906C45.7824 47.2993 46.1437 48.8145 46.4683 49.8242V49.8252C46.7938 50.8019 47.7646 53.1021 48.6626 54.8623C49.525 56.6228 50.8892 58.9922 51.6099 60.0732L51.6118 60.0762C51.9897 60.616 52.413 61.1837 52.7964 61.6572C53.1277 62.0665 53.4386 62.4175 53.6675 62.6162L53.7603 62.6924C53.9667 62.8778 54.2015 63.0279 54.4175 63.1191C54.5272 63.1654 54.6368 63.1989 54.7388 63.2119C54.8384 63.2246 54.9467 63.2197 55.0405 63.1729C55.0951 63.1455 55.1529 63.0914 55.2036 63.0391C55.2599 62.9809 55.3274 62.9039 55.4028 62.8125C55.554 62.6293 55.7454 62.3789 55.9634 62.0801C56.3998 61.4817 56.9479 60.682 57.5044 59.8203L57.5054 59.8193C58.6185 58.0599 60.2336 55.1876 61.061 53.4248C61.8876 51.6637 62.7521 49.2887 63.0063 48.1992C63.2609 47.1083 63.4055 45.2282 63.2964 44.0283C63.1878 42.8343 62.7913 41.2009 62.3853 40.3887C61.9804 39.579 61.0702 38.4529 60.3774 37.833L60.3745 37.8301L60.0806 37.5947C59.3513 37.0437 58.3457 36.4879 57.6636 36.293H57.6626C56.8542 36.037 55.3367 35.8213 54.2515 35.8213Z" fill="#EFB029"/>
</svg>
