<svg width="167" height="168" viewBox="0 0 167 168" fill="none" xmlns="http://www.w3.org/2000/svg">
<ellipse cx="83.5" cy="84" rx="83.5" ry="84" fill="#00314D"/>
<path d="M79.2344 95.555L102.188 72.39L96.3984 66.5475L79.2344 83.87L70.7031 75.26L64.9141 81.1025L79.2344 95.555ZM83.5 122C74.0885 119.608 66.319 114.159 60.1914 105.651C54.0638 97.1437 51 87.6967 51 77.31V52.3L83.5 40L116 52.3V77.31C116 87.6967 112.936 97.1437 106.809 105.651C100.681 114.159 92.9115 119.608 83.5 122ZM83.5 113.39C90.5417 111.135 96.3646 106.625 100.969 99.86C105.573 93.095 107.875 85.5783 107.875 77.31V57.9375L83.5 48.7125L59.125 57.9375V77.31C59.125 85.5783 61.4271 93.095 66.0312 99.86C70.6354 106.625 76.4583 111.135 83.5 113.39Z" fill="white"/>
</svg>
