<svg width="108" height="26" viewBox="0 0 108 26" fill="none" xmlns="http://www.w3.org/2000/svg">
<path d="M11.1111 4.96612C11.619 3.40299 13.8304 3.403 14.3383 4.96612L15.2007 7.62022C15.4278 8.31927 16.0792 8.79256 16.8143 8.79256H19.605C21.2485 8.79256 21.9319 10.8957 20.6022 11.8618L18.3445 13.5021C17.7498 13.9342 17.501 14.7 17.7282 15.399L18.5905 18.0531C19.0984 19.6162 17.3094 20.9161 15.9797 19.95L13.722 18.3097C13.1273 17.8776 12.3221 17.8776 11.7275 18.3097L9.46975 19.95C8.14008 20.9161 6.35102 19.6162 6.85891 18.0531L7.72128 15.399C7.94841 14.7 7.69959 13.9342 7.10494 13.5021L4.84722 11.8618C3.51755 10.8957 4.20091 8.79256 5.84448 8.79256H8.63517C9.37019 8.79256 10.0216 8.31927 10.2488 7.62022L11.1111 4.96612Z" fill="#FFB21F"/>
<path d="M31.5606 4.96612C32.0685 3.40299 34.2799 3.403 34.7877 4.96612L35.6501 7.62022C35.8772 8.31927 36.5287 8.79256 37.2637 8.79256H40.0544C41.698 8.79256 42.3813 10.8957 41.0516 11.8618L38.7939 13.5021C38.1993 13.9342 37.9505 14.7 38.1776 15.399L39.04 18.0531C39.5479 19.6162 37.7588 20.9161 36.4291 19.95L34.1714 18.3097C33.5768 17.8776 32.7715 17.8776 32.1769 18.3097L29.9192 19.95C28.5895 20.9161 26.8004 19.6162 27.3083 18.0531L28.1707 15.399C28.3978 14.7 28.149 13.9342 27.5544 13.5021L25.2967 11.8618C23.967 10.8957 24.6503 8.79256 26.2939 8.79256H29.0846C29.8196 8.79256 30.4711 8.31927 30.6982 7.62022L31.5606 4.96612Z" fill="#FFB21F"/>
<path d="M52.01 4.96612C52.5179 3.40299 54.7293 3.403 55.2372 4.96612L56.0995 7.62022C56.3267 8.31927 56.9781 8.79256 57.7131 8.79256H60.5038C62.1474 8.79256 62.8307 10.8957 61.5011 11.8618L59.2434 13.5021C58.6487 13.9342 58.3999 14.7 58.627 15.399L59.4894 18.0531C59.9973 19.6162 58.2082 20.9161 56.8786 19.95L54.6208 18.3097C54.0262 17.8776 53.221 17.8776 52.6263 18.3097L50.3686 19.95C49.0389 20.9161 47.2499 19.6162 47.7578 18.0531L48.6201 15.399C48.8473 14.7 48.5985 13.9342 48.0038 13.5021L45.7461 11.8618C44.4164 10.8957 45.0998 8.79256 46.7433 8.79256H49.534C50.2691 8.79256 50.9205 8.31927 51.1476 7.62022L52.01 4.96612Z" fill="#FFB21F"/>
<path d="M72.4595 4.96612C72.9673 3.40299 75.1787 3.403 75.6866 4.96612L76.549 7.62022C76.7761 8.31927 77.4276 8.79256 78.1626 8.79256H80.9533C82.5969 8.79256 83.2802 10.8957 81.9505 11.8618L79.6928 13.5021C79.0982 13.9342 78.8494 14.7 79.0765 15.399L79.9389 18.0531C80.4467 19.6162 78.6577 20.9161 77.328 19.95L75.0703 18.3097C74.4757 17.8776 73.6704 17.8776 73.0758 18.3097L70.8181 19.95C69.4884 20.9161 67.6993 19.6162 68.2072 18.0531L69.0696 15.399C69.2967 14.7 69.0479 13.9342 68.4533 13.5021L66.1956 11.8618C64.8659 10.8957 65.5492 8.79256 67.1928 8.79256H69.9835C70.7185 8.79256 71.37 8.31927 71.5971 7.62022L72.4595 4.96612Z" fill="#FFB21F"/>
<path d="M92.9089 4.96612C93.4168 3.40299 95.6282 3.403 96.1361 4.96612L96.9984 7.62022C97.2256 8.31927 97.877 8.79256 98.612 8.79256H101.403C103.046 8.79256 103.73 10.8957 102.4 11.8618L100.142 13.5021C99.5476 13.9342 99.2988 14.7 99.5259 15.399L100.388 18.0531C100.896 19.6162 99.1071 20.9161 97.7774 19.95L95.5197 18.3097C94.9251 17.8776 94.1199 17.8776 93.5252 18.3097L91.2675 19.95C89.9378 20.9161 88.1488 19.6162 88.6567 18.0531L89.519 15.399C89.7462 14.7 89.4973 13.9342 88.9027 13.5021L86.645 11.8618C85.3153 10.8957 85.9987 8.79256 87.6422 8.79256H90.4329C91.168 8.79256 91.8194 8.31927 92.0465 7.62022L92.9089 4.96612Z" fill="#FFB21F"/>
</svg>
