<svg width="161" height="130" viewBox="0 0 161 130" fill="none" xmlns="http://www.w3.org/2000/svg">
<path d="M43.9192 44.4215C43.9192 24.4823 60.0831 8.31836 80.0223 8.31836C94.4244 8.31836 106.857 16.7513 112.651 28.9487C110.125 29.4399 103.305 31.0118 96.2319 33.3695L74.8648 15.318H71.5492C75.8472 20.5983 84.7379 32.1907 85.9167 36.3167L44.3394 49.9475C44.0627 48.146 43.9192 46.3005 43.9192 44.4215Z" fill="#EFB029"/>
<path d="M116.126 44.4215C116.126 64.3607 99.9616 80.5247 80.0223 80.5247C62.8697 80.5247 48.5109 68.563 44.8325 52.5263L87.3903 41.4743C88.0043 41.9655 87.3903 58.7891 85.9167 66.1571H88.8639L96.9687 38.8955C102.042 37.5447 112.582 34.4011 114.157 32.6327C115.433 36.3272 116.126 40.2935 116.126 44.4215Z" fill="#EFB029"/>
<path d="M2.54903 119.524V90.1962H22.3112V95.3086H8.74977V102.297H21.2944V107.409H8.74977V114.412H22.3685V119.524H2.54903ZM32.6278 97.5283L36.6661 105.218L40.8047 97.5283H47.0627L40.6901 108.526L47.2346 119.524H41.0052L36.6661 111.92L32.3986 119.524H26.0976L32.6278 108.526L26.3268 97.5283H32.6278ZM51.089 127.773V97.5283H57.1036V101.223H57.3757C57.643 100.631 58.0297 100.03 58.5357 99.4186C59.0512 98.798 59.7195 98.2825 60.5405 97.872C61.3711 97.4519 62.4022 97.2419 63.6337 97.2419C65.2376 97.2419 66.7174 97.6619 68.073 98.5021C69.4287 99.3326 70.5123 100.588 71.3238 102.268C72.1353 103.939 72.541 106.035 72.541 108.555C72.541 111.009 72.1448 113.08 71.3524 114.77C70.5696 116.45 69.5003 117.725 68.1446 118.594C66.7985 119.453 65.2901 119.882 63.6194 119.882C62.4356 119.882 61.4284 119.687 60.5978 119.295C59.7768 118.904 59.1037 118.412 58.5786 117.82C58.0535 117.219 57.6526 116.613 57.3757 116.002H57.1895V127.773H51.089ZM57.0607 108.526C57.0607 109.834 57.242 110.975 57.6048 111.949C57.9676 112.923 58.4927 113.682 59.1801 114.226C59.8675 114.76 60.7028 115.028 61.6861 115.028C62.679 115.028 63.5192 114.756 64.2065 114.212C64.8939 113.658 65.4142 112.894 65.7675 111.92C66.1302 110.937 66.3116 109.806 66.3116 108.526C66.3116 107.257 66.135 106.14 65.7818 105.175C65.4285 104.211 64.9082 103.457 64.2209 102.913C63.5335 102.369 62.6886 102.096 61.6861 102.096C60.6933 102.096 59.8531 102.359 59.1658 102.884C58.4879 103.409 57.9676 104.154 57.6048 105.118C57.242 106.082 57.0607 107.218 57.0607 108.526ZM87.0356 119.954C84.7729 119.954 82.8254 119.496 81.1928 118.579C79.5698 117.653 78.3192 116.345 77.4409 114.655C76.5626 112.956 76.1234 110.946 76.1234 108.627C76.1234 106.364 76.5626 104.378 77.4409 102.669C78.3192 100.96 79.5555 99.6286 81.1499 98.6739C82.7537 97.7192 84.6345 97.2419 86.7921 97.2419C88.2432 97.2419 89.5941 97.4758 90.8448 97.9436C92.105 98.4018 93.2029 99.094 94.1385 100.02C95.0836 100.946 95.8187 102.111 96.3438 103.514C96.8689 104.908 97.1314 106.541 97.1314 108.412V110.087H78.5579V106.307H91.389C91.389 105.428 91.198 104.65 90.8161 103.972C90.4343 103.295 89.9044 102.765 89.2266 102.383C88.5583 101.991 87.7802 101.796 86.8923 101.796C85.9663 101.796 85.1453 102.011 84.4292 102.44C83.7228 102.86 83.169 103.428 82.7681 104.144C82.3671 104.851 82.1618 105.638 82.1523 106.507V110.102C82.1523 111.19 82.3528 112.13 82.7537 112.923C83.1643 113.715 83.7419 114.326 84.4865 114.756C85.2312 115.185 86.1143 115.4 87.1358 115.4C87.8136 115.4 88.4342 115.305 88.9974 115.114C89.5607 114.923 90.0428 114.636 90.4438 114.255C90.8448 113.873 91.1503 113.405 91.3603 112.851L97.0026 113.223C96.7161 114.579 96.129 115.763 95.2411 116.775C94.3628 117.777 93.2267 118.56 91.8329 119.123C90.4486 119.677 88.8495 119.954 87.0356 119.954ZM109.621 119.882C107.95 119.882 106.437 119.453 105.082 118.594C103.735 117.725 102.666 116.45 101.874 114.77C101.091 113.08 100.7 111.009 100.7 108.555C100.7 106.035 101.105 103.939 101.917 102.268C102.728 100.588 103.807 99.3326 105.153 98.5021C106.509 97.6619 107.993 97.2419 109.607 97.2419C110.838 97.2419 111.865 97.4519 112.686 97.872C113.516 98.2825 114.185 98.798 114.691 99.4186C115.206 100.03 115.597 100.631 115.865 101.223H116.051V90.1962H122.137V119.524H116.123V116.002H115.865C115.578 116.613 115.173 117.219 114.648 117.82C114.132 118.412 113.459 118.904 112.628 119.295C111.807 119.687 110.805 119.882 109.621 119.882ZM111.554 115.028C112.538 115.028 113.368 114.76 114.046 114.226C114.734 113.682 115.259 112.923 115.621 111.949C115.994 110.975 116.18 109.834 116.18 108.526C116.18 107.218 115.998 106.082 115.636 105.118C115.273 104.154 114.748 103.409 114.06 102.884C113.373 102.359 112.538 102.096 111.554 102.096C110.552 102.096 109.707 102.369 109.02 102.913C108.332 103.457 107.812 104.211 107.459 105.175C107.105 106.14 106.929 107.257 106.929 108.526C106.929 109.806 107.105 110.937 107.459 111.92C107.822 112.894 108.342 113.658 109.02 114.212C109.707 114.756 110.552 115.028 111.554 115.028ZM127.556 119.524V97.5283H133.657V119.524H127.556ZM130.621 94.6928C129.714 94.6928 128.936 94.3921 128.286 93.7906C127.647 93.1796 127.327 92.4493 127.327 91.5996C127.327 90.7595 127.647 90.0387 128.286 89.4372C128.936 88.8262 129.714 88.5207 130.621 88.5207C131.528 88.5207 132.301 88.8262 132.941 89.4372C133.59 90.0387 133.914 90.7595 133.914 91.5996C133.914 92.4493 133.59 93.1796 132.941 93.7906C132.301 94.3921 131.528 94.6928 130.621 94.6928ZM145.219 119.94C143.816 119.94 142.565 119.696 141.467 119.209C140.369 118.713 139.5 117.983 138.861 117.018C138.231 116.045 137.916 114.832 137.916 113.381C137.916 112.159 138.14 111.133 138.589 110.302C139.037 109.471 139.648 108.803 140.422 108.297C141.195 107.791 142.073 107.409 143.057 107.152C144.05 106.894 145.09 106.712 146.179 106.607C147.458 106.474 148.489 106.35 149.272 106.235C150.055 106.111 150.623 105.93 150.976 105.691C151.329 105.452 151.506 105.099 151.506 104.631V104.545C151.506 103.638 151.219 102.937 150.647 102.44C150.083 101.944 149.281 101.696 148.241 101.696C147.143 101.696 146.269 101.939 145.62 102.426C144.971 102.903 144.541 103.505 144.331 104.23L138.689 103.772C138.975 102.435 139.539 101.28 140.379 100.306C141.219 99.3231 142.302 98.5689 143.63 98.0438C144.966 97.5092 146.513 97.2419 148.269 97.2419C149.491 97.2419 150.661 97.3851 151.778 97.6715C152.904 97.9579 153.902 98.4018 154.771 99.0033C155.649 99.6047 156.341 100.378 156.847 101.323C157.353 102.259 157.606 103.381 157.606 104.688V119.524H151.821V116.474H151.649C151.296 117.162 150.823 117.768 150.231 118.293C149.639 118.808 148.928 119.214 148.097 119.51C147.267 119.797 146.307 119.94 145.219 119.94ZM146.966 115.73C147.864 115.73 148.656 115.553 149.343 115.2C150.031 114.837 150.57 114.35 150.962 113.739C151.353 113.128 151.549 112.436 151.549 111.663V109.328C151.358 109.452 151.095 109.567 150.761 109.672C150.436 109.767 150.069 109.858 149.658 109.944C149.248 110.02 148.837 110.092 148.427 110.159C148.016 110.216 147.644 110.269 147.31 110.316C146.594 110.421 145.969 110.588 145.434 110.818C144.899 111.047 144.484 111.357 144.188 111.748C143.892 112.13 143.744 112.608 143.744 113.18C143.744 114.011 144.045 114.646 144.646 115.085C145.257 115.515 146.031 115.73 146.966 115.73Z" fill="#EFB029"/>
</svg>
