<svg width="162" height="29" viewBox="0 0 162 29" fill="none" xmlns="http://www.w3.org/2000/svg">
<path d="M5.15465 27.731H4.42006e-06V1.9757H5.15465V12.285H15.446V1.9757H20.6006V27.731H15.446V17.4396H5.15465V27.731Z" fill="#EFB029"/>
<path d="M43.1769 17.9425C43.1769 19.3794 42.9194 20.7204 42.4046 21.9657C41.8897 23.1989 41.1893 24.2706 40.3032 25.1806C39.4172 26.0786 38.3755 26.791 37.1781 27.3179C35.9927 27.8327 34.7175 28.0902 33.3525 28.0902C31.9995 28.0902 30.7243 27.8327 29.527 27.3179C28.3416 26.791 27.2999 26.0786 26.4018 25.1806C25.5158 24.2706 24.8153 23.1989 24.3005 21.9657C23.7856 20.7204 23.5282 19.3794 23.5282 17.9425C23.5282 16.4817 23.7856 15.1287 24.3005 13.8835C24.8153 12.6382 25.5158 11.5666 26.4018 10.6685C27.2999 9.75855 28.3416 9.04612 29.527 8.53126C30.7243 8.01639 31.9995 7.75896 33.3525 7.75896C34.7175 7.75896 35.9927 8.00442 37.1781 8.49534C38.3755 8.97428 39.4172 9.66276 40.3032 10.5608C41.1893 11.4468 41.8897 12.5185 42.4046 13.7757C42.9194 15.021 43.1769 16.4099 43.1769 17.9425ZM38.2378 17.9425C38.2378 17.1523 38.1061 16.4398 37.8426 15.8052C37.5912 15.1587 37.2439 14.6079 36.8009 14.1529C36.3579 13.6859 35.837 13.3327 35.2384 13.0932C34.6517 12.8418 34.023 12.716 33.3525 12.716C32.682 12.716 32.0474 12.8418 31.4487 13.0932C30.862 13.3327 30.3471 13.6859 29.9041 14.1529C29.4731 14.6079 29.1318 15.1587 28.8804 15.8052C28.6289 16.4398 28.5032 17.1523 28.5032 17.9425C28.5032 18.6849 28.6289 19.3734 28.8804 20.008C29.1318 20.6426 29.4731 21.1934 29.9041 21.6603C30.3471 22.1273 30.862 22.4985 31.4487 22.7739C32.0474 23.0373 32.682 23.169 33.3525 23.169C34.023 23.169 34.6517 23.0433 35.2384 22.7918C35.837 22.5404 36.3579 22.1872 36.8009 21.7322C37.2439 21.2772 37.5912 20.7264 37.8426 20.0798C38.1061 19.4332 38.2378 18.7208 38.2378 17.9425ZM50.7921 27.731H45.8889V8.49534H47.0743L48.6907 10.7763C49.481 10.0579 50.379 9.50711 51.3848 9.12395C52.3906 8.72882 53.4323 8.53126 54.5099 8.53126H58.8384V13.4165H54.5099C53.995 13.4165 53.5101 13.5123 53.0551 13.7039C52.6001 13.8954 52.205 14.1589 51.8697 14.4941C51.5345 14.8294 51.271 15.2245 51.0795 15.6795C50.8879 16.1345 50.7921 16.6194 50.7921 17.1343V27.731ZM66.9026 3.26885C66.9026 3.72385 66.8128 4.14891 66.6332 4.54404C66.4656 4.93917 66.2321 5.28641 65.9327 5.58575C65.6334 5.87311 65.2802 6.1066 64.8731 6.2862C64.478 6.45383 64.0529 6.53765 63.5979 6.53765C63.1429 6.53765 62.7118 6.45383 62.3047 6.2862C61.9096 6.1066 61.5624 5.87311 61.263 5.58575C60.9757 5.28641 60.7422 4.93917 60.5626 4.54404C60.3949 4.14891 60.3111 3.72385 60.3111 3.26885C60.3111 2.82583 60.3949 2.40675 60.5626 2.01162C60.7422 1.60452 60.9757 1.25728 61.263 0.969915C61.5624 0.670574 61.9096 0.437089 62.3047 0.269458C62.7118 0.0898536 63.1429 5.14835e-05 63.5979 5.14835e-05C64.0529 5.14835e-05 64.478 0.0898536 64.8731 0.269458C65.2802 0.437089 65.6334 0.670574 65.9327 0.969915C66.2321 1.25728 66.4656 1.60452 66.6332 2.01162C66.8128 2.40675 66.9026 2.82583 66.9026 3.26885ZM66.0585 27.731H61.1193V8.49534H66.0585V27.731ZM84.8271 27.731H68.7885L76.8886 13.4165H68.7885V8.53126H84.8271L76.727 22.8457H84.8271V27.731ZM105.859 17.9425C105.859 19.3794 105.601 20.7204 105.086 21.9657C104.572 23.1989 103.871 24.2706 102.985 25.1806C102.099 26.0786 101.057 26.791 99.86 27.3179C98.6746 27.8327 97.3994 28.0902 96.0344 28.0902C94.6814 28.0902 93.4062 27.8327 92.2089 27.3179C91.0235 26.791 89.9818 26.0786 89.0837 25.1806C88.1977 24.2706 87.4972 23.1989 86.9824 21.9657C86.4675 20.7204 86.2101 19.3794 86.2101 17.9425C86.2101 16.4817 86.4675 15.1287 86.9824 13.8835C87.4972 12.6382 88.1977 11.5666 89.0837 10.6685C89.9818 9.75855 91.0235 9.04612 92.2089 8.53126C93.4062 8.01639 94.6814 7.75896 96.0344 7.75896C97.3994 7.75896 98.6746 8.00442 99.86 8.49534C101.057 8.97428 102.099 9.66276 102.985 10.5608C103.871 11.4468 104.572 12.5185 105.086 13.7757C105.601 15.021 105.859 16.4099 105.859 17.9425ZM100.92 17.9425C100.92 17.1523 100.788 16.4398 100.525 15.8052C100.273 15.1587 99.9259 14.6079 99.4828 14.1529C99.0398 13.6859 98.519 13.3327 97.9203 13.0932C97.3336 12.8418 96.705 12.716 96.0344 12.716C95.3639 12.716 94.7293 12.8418 94.1306 13.0932C93.5439 13.3327 93.0291 13.6859 92.586 14.1529C92.155 14.6079 91.8137 15.1587 91.5623 15.8052C91.3108 16.4398 91.1851 17.1523 91.1851 17.9425C91.1851 18.6849 91.3108 19.3734 91.5623 20.008C91.8137 20.6426 92.155 21.1934 92.586 21.6603C93.0291 22.1273 93.5439 22.4985 94.1306 22.7739C94.7293 23.0373 95.3639 23.169 96.0344 23.169C96.705 23.169 97.3336 23.0433 97.9203 22.7918C98.519 22.5404 99.0398 22.1872 99.4828 21.7322C99.9259 21.2772 100.273 20.7264 100.525 20.0798C100.788 19.4332 100.92 18.7208 100.92 17.9425ZM113.474 27.731H108.571V8.49534H109.756L111.373 10.3632C112.163 9.6448 113.055 9.09402 114.049 8.71086C115.055 8.31573 116.102 8.11817 117.192 8.11817C118.365 8.11817 119.473 8.34567 120.514 8.80066C121.556 9.24369 122.466 9.86033 123.244 10.6506C124.023 11.4289 124.633 12.3449 125.076 13.3985C125.531 14.4402 125.759 15.5538 125.759 16.7392V27.731H120.856V16.7392C120.856 16.2363 120.76 15.7633 120.568 15.3203C120.377 14.8653 120.113 14.4702 119.778 14.1349C119.443 13.7996 119.054 13.5362 118.611 13.3447C118.168 13.1531 117.695 13.0573 117.192 13.0573C116.677 13.0573 116.192 13.1531 115.737 13.3447C115.282 13.5362 114.887 13.7996 114.552 14.1349C114.216 14.4702 113.953 14.8653 113.761 15.3203C113.57 15.7633 113.474 16.2363 113.474 16.7392V27.731ZM138.655 27.731C137.469 27.731 136.356 27.5094 135.314 27.0664C134.272 26.6114 133.356 25.9948 132.566 25.2165C131.788 24.4262 131.171 23.5103 130.716 22.4686C130.273 21.4268 130.051 20.3133 130.051 19.1279V13.4165H127.663V8.53126H130.051V0.844192H134.937V8.53126H142.372V13.4165H134.937V19.1279C134.937 19.6428 135.033 20.1277 135.224 20.5827C135.416 21.0257 135.679 21.4149 136.014 21.7501C136.35 22.0854 136.745 22.3548 137.2 22.5584C137.655 22.7499 138.14 22.8457 138.655 22.8457H142.372V27.731H138.655ZM152.789 23.0253C152.981 23.0852 153.173 23.1271 153.364 23.151C153.556 23.163 153.747 23.169 153.939 23.169C154.418 23.169 154.879 23.1032 155.322 22.9714C155.765 22.8397 156.178 22.6541 156.561 22.4147C156.956 22.1632 157.303 21.8639 157.603 21.5166C157.914 21.1574 158.166 20.7623 158.357 20.3313L161.949 23.9413C161.494 24.5879 160.967 25.1686 160.369 25.6835C159.782 26.1983 159.141 26.6354 158.447 26.9946C157.764 27.3538 157.04 27.6232 156.274 27.8028C155.519 27.9944 154.741 28.0902 153.939 28.0902C152.586 28.0902 151.311 27.8387 150.113 27.3358C148.928 26.8329 147.886 26.1325 146.988 25.2345C146.102 24.3364 145.402 23.2708 144.887 22.0375C144.372 20.7922 144.115 19.4273 144.115 17.9425C144.115 16.4219 144.372 15.0329 144.887 13.7757C145.402 12.5185 146.102 11.4468 146.988 10.5608C147.886 9.67474 148.928 8.98625 150.113 8.49534C151.311 8.00442 152.586 7.75896 153.939 7.75896C154.741 7.75896 155.525 7.85475 156.292 8.04632C157.058 8.2379 157.782 8.5133 158.465 8.8725C159.159 9.23171 159.806 9.67474 160.405 10.2016C161.003 10.7164 161.53 11.2972 161.985 11.9437L152.789 23.0253ZM155.304 12.9136C155.076 12.8298 154.849 12.7759 154.621 12.752C154.406 12.728 154.178 12.716 153.939 12.716C153.268 12.716 152.634 12.8418 152.035 13.0932C151.448 13.3327 150.933 13.6799 150.49 14.1349C150.059 14.5899 149.718 15.1407 149.467 15.7873C149.215 16.4219 149.09 17.1403 149.09 17.9425C149.09 18.1221 149.096 18.3257 149.108 18.5532C149.131 18.7807 149.161 19.0142 149.197 19.2536C149.245 19.4811 149.299 19.7026 149.359 19.9182C149.419 20.1337 149.497 20.3253 149.592 20.4929L155.304 12.9136Z" fill="#E0F4FF"/>
</svg>
