<svg width="167" height="168" viewBox="0 0 167 168" fill="none" xmlns="http://www.w3.org/2000/svg">
<ellipse cx="83.5" cy="84" rx="83.5" ry="84" fill="#00314D"/>
<path d="M52.2579 112.868C50.9596 113.395 49.7588 113.247 48.6553 112.424C47.5518 111.602 47 110.5 47 109.118V53.8553C47 53 47.2434 52.2434 47.7303 51.5855C48.2171 50.9276 48.8825 50.4342 49.7263 50.1053L70.3684 43L93.7368 51.2895L111.847 44.1842C113.146 43.6579 114.346 43.8059 115.45 44.6283C116.554 45.4507 117.105 46.5526 117.105 47.9342V81.1908C116.132 79.6776 114.979 78.2961 113.649 77.0461C112.318 75.7961 110.874 74.7105 109.316 73.7895V53.6579L97.6316 58.1974V70.6316C96.2684 70.6316 94.9377 70.7467 93.6395 70.977C92.3412 71.2072 91.0754 71.5526 89.8421 72.0132V58.1974L74.2632 52.6711V104.283L52.2579 112.868ZM54.7895 103.395L66.4737 98.8553V52.6711L54.7895 56.6184V103.395ZM97.6316 102.211C99.8386 102.211 101.672 101.553 103.133 100.237C104.593 98.9211 105.356 96.9474 105.421 94.3158C105.486 92.0789 104.756 90.2039 103.23 88.6908C101.705 87.1776 99.8386 86.4211 97.6316 86.4211C95.4246 86.4211 93.5746 87.1776 92.0816 88.6908C90.5886 90.2039 89.8421 92.0789 89.8421 94.3158C89.8421 96.5526 90.5886 98.4276 92.0816 99.9408C93.5746 101.454 95.4246 102.211 97.6316 102.211ZM97.6316 110.105C93.3474 110.105 89.6798 108.559 86.6289 105.467C83.5781 102.375 82.0526 98.6579 82.0526 94.3158C82.0526 89.9737 83.5781 86.2566 86.6289 83.1645C89.6798 80.0724 93.3474 78.5263 97.6316 78.5263C101.916 78.5263 105.583 80.0724 108.634 83.1645C111.685 86.2566 113.211 89.9737 113.211 94.3158C113.211 95.8289 113.032 97.2599 112.675 98.6086C112.318 99.9572 111.782 101.224 111.068 102.408L121 112.474L115.547 118L105.616 107.934C104.447 108.658 103.198 109.201 101.867 109.562C100.536 109.924 99.1246 110.105 97.6316 110.105Z" fill="white"/>
</svg>
