<svg width="167" height="168" viewBox="0 0 167 168" fill="none" xmlns="http://www.w3.org/2000/svg">
<ellipse cx="83.5" cy="84" rx="83.5" ry="84" fill="#00314D"/>
<path d="M83.5 83.5625C86.7839 83.5625 89.8783 83.9453 92.7832 84.7109C95.6881 85.349 98.2773 86.1784 100.551 87.1992C102.824 88.2201 104.592 89.7513 105.855 91.793C107.118 93.8346 107.75 96.0039 107.75 98.3008V105H59.25V98.4922C59.25 96.0677 59.8815 93.8346 61.1445 91.793C62.4076 89.7513 64.1758 88.2201 66.4492 87.1992C68.7227 86.1784 71.3118 85.349 74.2168 84.7109C77.1217 83.9453 80.2161 83.5625 83.5 83.5625ZM51.1035 84.5195C53.377 84.5195 55.2715 83.7539 56.7871 82.2227C58.429 80.5638 59.25 78.6497 59.25 76.4805C59.25 74.1836 58.429 72.2695 56.7871 70.7383C55.2715 69.0794 53.377 68.25 51.1035 68.25C48.9564 68.25 47.0618 69.0794 45.4199 70.7383C43.9043 72.2695 43.1465 74.1836 43.1465 76.4805C43.1465 78.6497 43.9043 80.5638 45.4199 82.2227C47.0618 83.7539 48.9564 84.5195 51.1035 84.5195ZM55.6504 89.1133C55.0189 88.9857 54.3242 88.9219 53.5664 88.9219C52.8086 88.7943 51.9876 88.7305 51.1035 88.7305C49.0827 88.7305 47.125 88.9219 45.2305 89.3047C43.4622 89.6875 41.694 90.2617 39.9258 91.0273C38.4102 91.6654 37.2103 92.6862 36.3262 94.0898C35.4421 95.4935 35 97.0247 35 98.6836V105H53.1875V98.4922C53.1875 95.1745 54.0085 92.0482 55.6504 89.1133ZM115.896 84.5195C118.044 84.5195 119.875 83.7539 121.391 82.2227C123.033 80.5638 123.854 78.6497 123.854 76.4805C123.854 74.1836 123.033 72.2695 121.391 70.7383C119.875 69.0794 118.044 68.25 115.896 68.25C113.623 68.25 111.665 69.0794 110.023 70.7383C108.508 72.2695 107.75 74.1836 107.75 76.4805C107.75 78.6497 108.508 80.5638 110.023 82.2227C111.665 83.7539 113.623 84.5195 115.896 84.5195ZM132 98.6836C132 97.0247 131.558 95.4935 130.674 94.0898C129.79 92.6862 128.59 91.6654 127.074 91.0273C125.306 90.2617 123.475 89.6875 121.58 89.3047C119.812 88.9219 117.917 88.7305 115.896 88.7305C115.012 88.7305 114.191 88.7943 113.434 88.9219C112.676 88.9219 111.981 88.9857 111.35 89.1133C112.992 92.0482 113.812 95.1745 113.812 98.4922V105H132V98.6836ZM83.5 56C85.7734 56 87.7943 56.5742 89.5625 57.7227C91.457 58.7435 92.9095 60.2109 93.9199 62.125C95.0566 63.9115 95.625 65.9531 95.625 68.25C95.625 70.5469 95.0566 72.6523 93.9199 74.5664C92.9095 76.3529 91.457 77.8203 89.5625 78.9688C87.7943 79.9896 85.7734 80.5 83.5 80.5C81.2266 80.5 79.1426 79.9896 77.248 78.9688C75.4798 77.8203 74.0273 76.3529 72.8906 74.5664C71.8802 72.6523 71.375 70.5469 71.375 68.25C71.375 65.9531 71.8802 63.9115 72.8906 62.125C74.0273 60.2109 75.4798 58.7435 77.248 57.7227C79.1426 56.5742 81.2266 56 83.5 56Z" fill="white"/>
</svg>
