<svg width="18" height="20" viewBox="0 0 18 20" fill="none" xmlns="http://www.w3.org/2000/svg">
<path d="M17.3413 5.2606C16.8402 4.10333 16.0706 3.0648 15.0882 2.22013C14.1058 1.37546 12.9352 0.745767 11.661 0.37661C10.3867 0.00745173 9.04079 -0.0919437 7.72049 0.085614C6.4002 0.263172 5.13857 0.713243 4.02687 1.40327C2.91516 2.0933 1.98118 3.00602 1.29249 4.07543C0.603794 5.14484 0.177606 6.34418 0.0447546 7.5867C-0.0880966 8.82922 0.0757102 10.0839 0.524326 11.2598C0.972941 12.4358 1.69515 13.5038 2.6387 14.3864L8.37456 19.7562C8.45683 19.8335 8.55459 19.8948 8.66222 19.9366C8.76986 19.9785 8.88525 20 9.00179 20C9.11834 20 9.23373 19.9785 9.34137 19.9366C9.449 19.8948 9.54676 19.8335 9.62903 19.7562L15.3649 14.3864C16.6149 13.2149 17.4689 11.7248 17.8204 10.102C18.1718 8.47916 18.0052 6.79537 17.3413 5.2606ZM9.00179 11.8122C7.00963 11.8122 5.38829 10.2944 5.38829 8.42932C5.38829 6.56428 7.00963 5.04825 9.00179 5.04825C10.994 5.04825 12.6153 6.56428 12.6153 8.42932C12.6153 10.2944 10.994 11.8122 9.00179 11.8122Z" fill="#00314D"/>
</svg>
