<svg width="21" height="20" viewBox="0 0 21 20" fill="none" xmlns="http://www.w3.org/2000/svg">
<path d="M8.21214 1.38194C8.81085 -0.460685 11.4177 -0.460687 12.0164 1.38193L13.0329 4.51061C13.3007 5.33466 14.0686 5.89258 14.9351 5.89258H18.2247C20.1622 5.89258 20.9677 8.37181 19.4003 9.51061L16.7389 11.4442C16.0379 11.9535 15.7446 12.8563 16.0124 13.6803L17.0289 16.809C17.6276 18.6516 15.5187 20.1839 13.9512 19.0451L11.2898 17.1114C10.5889 16.6021 9.63966 16.6021 8.93869 17.1114L6.27728 19.0451C4.70985 20.1839 2.60089 18.6516 3.19959 16.809L4.21616 13.6803C4.48391 12.8563 4.19059 11.9535 3.48962 11.4442L0.828209 9.51061C-0.739219 8.37181 0.0663309 5.89258 2.00378 5.89258H5.29346C6.15991 5.89258 6.92783 5.33466 7.19558 4.51061L8.21214 1.38194Z" fill="#FFB21F"/>
</svg>
