<svg width="222" height="130" viewBox="0 0 222 130" fill="none" xmlns="http://www.w3.org/2000/svg">
<path d="M111.371 32.8076C121.223 32.8064 130.805 35.617 139.029 40.8203H150.368L146.095 46.1924L144.196 48.2871C147.994 51.8539 150.368 56.9204 150.368 62.542C150.368 73.3408 141.613 82.0947 130.814 82.0947C125.889 82.0946 121.388 80.2729 117.95 77.2666L111.378 84.5244L104.776 77.2393C101.238 80.4702 96.531 82.4423 91.3623 82.4424C80.3718 82.4424 71.4619 73.5325 71.4619 62.542C71.4619 56.6693 74.0058 51.3906 78.0518 47.748L76.6504 46.2012L71.5781 40.9678H83.4941C91.7659 35.6726 101.431 32.8089 111.371 32.8076ZM91.3623 49.2373C84.0779 49.2373 78.1729 55.1424 78.1729 62.4268C78.173 69.711 84.078 75.6162 91.3623 75.6162C98.6464 75.616 104.552 69.7109 104.552 62.4268C104.552 55.1425 98.6465 49.2375 91.3623 49.2373ZM130.931 49.2373C123.646 49.2373 117.741 55.1424 117.741 62.4268C117.741 69.711 123.646 75.6162 130.931 75.6162C138.215 75.6161 144.12 69.7109 144.12 62.4268C144.12 55.1424 138.215 49.2374 130.931 49.2373ZM91.2461 55.7158C95.2717 55.7158 98.5352 58.9793 98.5352 63.0049C98.5351 67.0304 95.2716 70.2939 91.2461 70.2939C87.2206 70.2939 83.9571 67.0304 83.957 63.0049C83.957 58.9794 87.2206 55.7159 91.2461 55.7158ZM130.583 55.7158C134.609 55.7158 137.872 58.9793 137.872 63.0049C137.872 67.0304 134.609 70.2939 130.583 70.2939C126.558 70.2937 123.295 67.0303 123.295 63.0049C123.295 58.9795 126.558 55.7161 130.583 55.7158ZM125.146 42.4111C120.633 40.3671 108.555 37.5056 96.3369 42.4111C100.849 44.4166 110.082 50.9494 110.915 61.0381C110.877 56.8344 113.669 47.2241 125.146 42.4111Z" fill="#EFB029"/>
<path d="M1.31979 98.2068V93.4952H23.5186V98.2068H15.2435V120.524H9.59484V98.2068H1.31979ZM25.3354 120.524V100.253H30.7861V103.79H30.9973C31.3668 102.531 31.9871 101.581 32.8582 100.939C33.7292 100.288 34.7323 99.9622 35.8673 99.9622C36.1488 99.9622 36.4524 99.9797 36.7779 100.015C37.1035 100.05 37.3894 100.099 37.6358 100.16V105.149C37.3718 105.07 37.0067 104.999 36.5404 104.938C36.0741 104.876 35.6473 104.845 35.2602 104.845C34.4331 104.845 33.694 105.026 33.0429 105.386C32.4007 105.738 31.8903 106.231 31.512 106.865C31.1425 107.498 30.9577 108.228 30.9577 109.055V120.524H25.3354ZM40.9143 120.524V100.253H46.5366V120.524H40.9143ZM43.7386 97.6393C42.9028 97.6393 42.1857 97.3622 41.5874 96.8079C40.9979 96.2448 40.7031 95.5717 40.7031 94.7886C40.7031 94.0143 40.9979 93.35 41.5874 92.7957C42.1857 92.2326 42.9028 91.9511 43.7386 91.9511C44.5745 91.9511 45.2872 92.2326 45.8767 92.7957C46.475 93.35 46.7741 94.0143 46.7741 94.7886C46.7741 95.5717 46.475 96.2448 45.8767 96.8079C45.2872 97.3622 44.5745 97.6393 43.7386 97.6393ZM51.412 128.126V100.253H56.9551V103.658H57.2058C57.4522 103.112 57.8085 102.558 58.2749 101.995C58.75 101.423 59.3659 100.948 60.1226 100.569C60.888 100.182 61.8383 99.9885 62.9733 99.9885C64.4515 99.9885 65.8152 100.376 67.0646 101.15C68.314 101.915 69.3127 103.072 70.0606 104.621C70.8084 106.161 71.1824 108.092 71.1824 110.415C71.1824 112.676 70.8172 114.585 70.087 116.143C69.3655 117.691 68.38 118.866 67.1306 119.667C65.89 120.458 64.4999 120.854 62.9601 120.854C61.8691 120.854 60.9408 120.674 60.1754 120.313C59.4187 119.953 58.7984 119.499 58.3145 118.954C57.8305 118.4 57.461 117.841 57.2058 117.278H57.0343V128.126H51.412ZM56.9155 110.388C56.9155 111.594 57.0827 112.645 57.417 113.543C57.7514 114.44 58.2353 115.14 58.8688 115.641C59.5023 116.134 60.2721 116.38 61.1784 116.38C62.0935 116.38 62.8677 116.13 63.5012 115.628C64.1347 115.118 64.6142 114.414 64.9398 113.516C65.2741 112.61 65.4413 111.567 65.4413 110.388C65.4413 109.218 65.2785 108.189 64.953 107.3C64.6274 106.412 64.1479 105.716 63.5144 105.215C62.8809 104.713 62.1022 104.463 61.1784 104.463C60.2633 104.463 59.4891 104.705 58.8556 105.189C58.2309 105.672 57.7514 106.359 57.417 107.247C57.0827 108.136 56.9155 109.183 56.9155 110.388ZM81.0829 120.907C79.7895 120.907 78.6369 120.683 77.625 120.234C76.6132 119.777 75.8125 119.103 75.223 118.215C74.6423 117.317 74.352 116.2 74.352 114.863C74.352 113.736 74.5587 112.79 74.9723 112.025C75.3858 111.26 75.9489 110.644 76.6616 110.177C77.3743 109.711 78.1838 109.359 79.09 109.121C80.0051 108.884 80.9641 108.717 81.9671 108.62C83.1461 108.497 84.0964 108.382 84.8179 108.277C85.5394 108.162 86.0629 107.995 86.3884 107.775C86.714 107.555 86.8767 107.23 86.8767 106.799V106.719C86.8767 105.884 86.6128 105.237 86.0849 104.779C85.5658 104.322 84.8267 104.093 83.8676 104.093C82.8558 104.093 82.0507 104.317 81.4524 104.766C80.8541 105.206 80.4582 105.76 80.2646 106.429L75.0647 106.007C75.3286 104.775 75.8477 103.71 76.622 102.813C77.3963 101.907 78.3949 101.212 79.6179 100.728C80.8497 100.235 82.2751 99.9885 83.894 99.9885C85.0202 99.9885 86.0981 100.121 87.1275 100.384C88.1657 100.648 89.0852 101.058 89.8859 101.612C90.6953 102.166 91.3332 102.879 91.7995 103.75C92.2659 104.612 92.499 105.646 92.499 106.851V120.524H87.1671V117.713H87.0087C86.6832 118.347 86.2476 118.905 85.7021 119.389C85.1566 119.865 84.5011 120.238 83.7357 120.511C82.9702 120.775 82.0859 120.907 81.0829 120.907ZM82.693 117.027C83.5201 117.027 84.2504 116.864 84.8839 116.539C85.5174 116.204 86.0145 115.756 86.3752 115.192C86.736 114.629 86.9163 113.991 86.9163 113.279V111.128C86.7404 111.242 86.4984 111.348 86.1905 111.444C85.8913 111.532 85.5526 111.616 85.1742 111.695C84.7959 111.765 84.4175 111.831 84.0392 111.893C83.6609 111.946 83.3177 111.994 83.0098 112.038C82.3499 112.135 81.7736 112.289 81.2809 112.5C80.7881 112.711 80.4054 112.997 80.1326 113.358C79.8599 113.71 79.7235 114.15 79.7235 114.678C79.7235 115.443 80.0007 116.028 80.555 116.433C81.1181 116.829 81.8308 117.027 82.693 117.027ZM104.703 120.854C103.163 120.854 101.768 120.458 100.519 119.667C99.2782 118.866 98.2928 117.691 97.5625 116.143C96.841 114.585 96.4803 112.676 96.4803 110.415C96.4803 108.092 96.8542 106.161 97.6021 104.621C98.35 103.072 99.3442 101.915 100.585 101.15C101.834 100.376 103.202 99.9885 104.689 99.9885C105.824 99.9885 106.77 100.182 107.527 100.569C108.292 100.948 108.908 101.423 109.375 101.995C109.85 102.558 110.21 103.112 110.457 103.658H110.628V93.4952H116.237V120.524H110.694V117.278H110.457C110.193 117.841 109.819 118.4 109.335 118.954C108.86 119.499 108.24 119.953 107.474 120.313C106.717 120.674 105.794 120.854 104.703 120.854ZM106.484 116.38C107.391 116.38 108.156 116.134 108.781 115.641C109.414 115.14 109.898 114.44 110.232 113.543C110.576 112.645 110.747 111.594 110.747 110.388C110.747 109.183 110.58 108.136 110.246 107.247C109.911 106.359 109.427 105.672 108.794 105.189C108.16 104.705 107.391 104.463 106.484 104.463C105.56 104.463 104.782 104.713 104.148 105.215C103.515 105.716 103.035 106.412 102.71 107.3C102.384 108.189 102.221 109.218 102.221 110.388C102.221 111.567 102.384 112.61 102.71 113.516C103.044 114.414 103.524 115.118 104.148 115.628C104.782 116.13 105.56 116.38 106.484 116.38ZM121.232 120.524V100.253H126.854V120.524H121.232ZM124.056 97.6393C123.22 97.6393 122.503 97.3622 121.905 96.8079C121.315 96.2448 121.021 95.5717 121.021 94.7886C121.021 94.0143 121.315 93.35 121.905 92.7957C122.503 92.2326 123.22 91.9511 124.056 91.9511C124.892 91.9511 125.605 92.2326 126.194 92.7957C126.792 93.35 127.092 94.0143 127.092 94.7886C127.092 95.5717 126.792 96.2448 126.194 96.8079C125.605 97.3622 124.892 97.6393 124.056 97.6393ZM150.629 100.253L143.541 120.524H137.206L130.119 100.253H136.058L140.268 114.757H140.48L144.676 100.253H150.629ZM153.878 120.524V100.253H159.5V120.524H153.878ZM156.702 97.6393C155.866 97.6393 155.149 97.3622 154.551 96.8079C153.961 96.2448 153.666 95.5717 153.666 94.7886C153.666 94.0143 153.961 93.35 154.551 92.7957C155.149 92.2326 155.866 91.9511 156.702 91.9511C157.538 91.9511 158.25 92.2326 158.84 92.7957C159.438 93.35 159.737 94.0143 159.737 94.7886C159.737 95.5717 159.438 96.2448 158.84 96.8079C158.25 97.3622 157.538 97.6393 156.702 97.6393ZM181.242 106.033L176.095 106.35C176.007 105.91 175.818 105.514 175.527 105.162C175.237 104.801 174.854 104.515 174.379 104.304C173.913 104.084 173.354 103.974 172.703 103.974C171.832 103.974 171.097 104.159 170.499 104.529C169.901 104.889 169.602 105.373 169.602 105.98C169.602 106.464 169.795 106.873 170.182 107.208C170.569 107.542 171.234 107.81 172.175 108.013L175.844 108.752C177.815 109.157 179.284 109.808 180.252 110.705C181.22 111.603 181.704 112.782 181.704 114.242C181.704 115.571 181.312 116.737 180.529 117.74C179.755 118.743 178.69 119.526 177.336 120.089C175.989 120.643 174.436 120.92 172.677 120.92C169.993 120.92 167.855 120.362 166.263 119.244C164.679 118.118 163.751 116.587 163.478 114.651L169.008 114.361C169.175 115.179 169.58 115.804 170.222 116.235C170.864 116.657 171.687 116.869 172.69 116.869C173.675 116.869 174.467 116.679 175.065 116.301C175.673 115.914 175.981 115.417 175.989 114.81C175.981 114.299 175.765 113.881 175.343 113.556C174.92 113.222 174.269 112.966 173.389 112.79L169.879 112.091C167.899 111.695 166.425 111.009 165.457 110.032C164.498 109.055 164.019 107.81 164.019 106.297C164.019 104.995 164.371 103.873 165.075 102.932C165.787 101.99 166.786 101.264 168.071 100.754C169.364 100.244 170.877 99.9885 172.611 99.9885C175.171 99.9885 177.186 100.53 178.655 101.612C180.133 102.694 180.996 104.168 181.242 106.033ZM194.775 120.92C192.725 120.92 190.952 120.485 189.457 119.614C187.97 118.734 186.821 117.511 186.012 115.945C185.202 114.37 184.798 112.544 184.798 110.468C184.798 108.374 185.202 106.543 186.012 104.977C186.821 103.402 187.97 102.179 189.457 101.308C190.952 100.428 192.725 99.9885 194.775 99.9885C196.825 99.9885 198.594 100.428 200.081 101.308C201.577 102.179 202.729 103.402 203.539 104.977C204.348 106.543 204.753 108.374 204.753 110.468C204.753 112.544 204.348 114.37 203.539 115.945C202.729 117.511 201.577 118.734 200.081 119.614C198.594 120.485 196.825 120.92 194.775 120.92ZM194.802 116.565C195.734 116.565 196.513 116.301 197.138 115.773C197.762 115.236 198.233 114.506 198.55 113.582C198.875 112.658 199.038 111.607 199.038 110.428C199.038 109.249 198.875 108.198 198.55 107.274C198.233 106.35 197.762 105.62 197.138 105.083C196.513 104.546 195.734 104.278 194.802 104.278C193.86 104.278 193.068 104.546 192.426 105.083C191.793 105.62 191.313 106.35 190.988 107.274C190.671 108.198 190.512 109.249 190.512 110.428C190.512 111.607 190.671 112.658 190.988 113.582C191.313 114.506 191.793 115.236 192.426 115.773C193.068 116.301 193.86 116.565 194.802 116.565ZM208.78 120.524V100.253H214.231V103.79H214.442C214.812 102.531 215.432 101.581 216.303 100.939C217.174 100.288 218.177 99.9622 219.312 99.9622C219.594 99.9622 219.897 99.9797 220.223 100.015C220.548 100.05 220.834 100.099 221.081 100.16V105.149C220.817 105.07 220.452 104.999 219.985 104.938C219.519 104.876 219.092 104.845 218.705 104.845C217.878 104.845 217.139 105.026 216.488 105.386C215.846 105.738 215.335 106.231 214.957 106.865C214.587 107.498 214.403 108.228 214.403 109.055V120.524H208.78Z" fill="#EFB029"/>
</svg>
